<?xml version="1.0" standalone="no"?><!DOCTYPE svg PUBLIC "-//W3C//DTD SVG 1.1//EN" "http://www.w3.org/Graphics/SVG/1.1/DTD/svg11.dtd"><svg t="1713701291338" class="icon" viewBox="0 0 1024 1024" version="1.1" xmlns="http://www.w3.org/2000/svg" p-id="8238" xmlns:xlink="http://www.w3.org/1999/xlink" width="200" height="200"><path d="M221.405405 285.059459c-24.908108 0-44.281081-19.372973-44.281081-44.281081V55.351351c0-24.908108 19.372973-44.281081 44.281081-44.281081s44.281081 19.372973 44.281081 44.281081v182.65946c0 24.908108-19.372973 47.048649-44.281081 47.048648zM445.578378 285.059459c-24.908108 0-44.281081-19.372973-44.281081-44.281081V55.351351c0-24.908108 19.372973-44.281081 44.281081-44.281081 24.908108 0 44.281081 19.372973 44.281081 44.281081v182.65946c2.767568 24.908108-19.372973 47.048649-44.281081 47.048648zM678.054054 1012.92973h-204.8c-102.4 0-185.427027-83.027027-185.427027-185.427027V691.891892c0-24.908108 19.372973-44.281081 44.281081-44.281081 24.908108 0 44.281081 19.372973 44.281081 44.281081v135.610811c0 52.583784 41.513514 94.097297 94.097297 94.097297H678.054054c52.583784 0 94.097297-41.513514 94.097297-94.097297v-221.405406c0-102.4 83.027027-185.427027 185.427027-185.427027 24.908108 0 44.281081 19.372973 44.281081 44.281081 0 24.908108-19.372973 44.281081-44.281081 44.281081-52.583784 0-94.097297 41.513514-94.097297 94.097298v221.405405c0 105.167568-83.027027 188.194595-185.427027 188.194595z" fill="#212529" p-id="8239"></path><path d="M542.443243 190.962162H124.540541C66.421622 190.962162 19.372973 238.010811 19.372973 296.12973v415.135135c0 58.118919 47.048649 105.167568 105.167568 105.167567h415.135135c58.118919 0 105.167568-47.048649 105.167567-105.167567v-415.135135c2.767568-58.118919-44.281081-105.167568-102.4-105.167568z m-119.005405 404.064865H243.545946c-24.908108 0-44.281081-19.372973-44.281081-44.281081s19.372973-44.281081 44.281081-44.281081h182.659459c24.908108 0 44.281081 19.372973 44.281081 44.281081s-22.140541 44.281081-47.048648 44.281081z" fill="#212529" p-id="8240"></path></svg>