<?xml version="1.0" standalone="no"?><!DOCTYPE svg PUBLIC "-//W3C//DTD SVG 1.1//EN" "http://www.w3.org/Graphics/SVG/1.1/DTD/svg11.dtd"><svg t="1713701395767" class="icon" viewBox="0 0 1024 1024" version="1.1" xmlns="http://www.w3.org/2000/svg" p-id="13723" xmlns:xlink="http://www.w3.org/1999/xlink" width="200" height="200"><path d="M512 102.4c-226.0992 0-409.6 183.5008-409.6 409.6s183.5008 409.6 409.6 409.6 409.6-183.5008 409.6-409.6-183.0912-409.6-409.6-409.6z m153.6 423.936l-152.3712 173.2608-18.0224 20.48c-24.9856 28.2624-45.4656 20.8896-45.4656-17.2032V540.672h-69.632c-31.5392 0-40.1408-19.2512-19.2512-43.008l152.3712-173.2608 18.0224-20.48c24.9856-28.2624 45.4656-20.8896 45.4656 17.2032V483.328h69.632c31.5392 0 40.1408 19.2512 19.2512 43.008z" fill="#0F1A2A" p-id="13724"></path></svg>