<?xml version="1.0" standalone="no"?><!DOCTYPE svg PUBLIC "-//W3C//DTD SVG 1.1//EN" "http://www.w3.org/Graphics/SVG/1.1/DTD/svg11.dtd"><svg t="1715764474573" class="icon" viewBox="0 0 1024 1024" version="1.1" xmlns="http://www.w3.org/2000/svg" p-id="32082" xmlns:xlink="http://www.w3.org/1999/xlink" width="256" height="256"><path d="M512 0C274.147813 0 79.541478 185.339367 79.541478 410.835596c0 253.297134 256.386124 475.704374 395.390649 599.263952a56.374057 56.374057 0 0 0 74.135746 0C681.894419 889.628959 944.458522 664.13273 944.458522 410.835596 944.458522 185.339367 749.852187 0 512 0z" fill="#1296db" p-id="32083" data-spm-anchor-id="a313x.search_index.0.i35.29f93a81zxUdd2" class=""></path><path d="M675.71644 410.835596h-21.622926v-86.491705h21.622926V256.386124h43.245853v64.868778h21.622926v86.491704h-21.622926v154.449472a64.868778 64.868778 0 1 1-129.737557 0v-86.491704h-43.245852V586.907994h21.622926v43.245852H283.414781V586.907994h21.622926V256.386124a21.128688 21.128688 0 0 1 21.622926-21.622926h197.695325a21.128688 21.128688 0 0 1 21.622926 21.622926V432.458522h43.245852a42.226486 42.226486 0 0 1 43.245852 43.245852v86.491704a21.622926 21.622926 0 1 0 43.245852 0v-151.360482z m-240.941176 0v-86.491705l-86.491704 132.826546h64.868778v86.491705l86.491704-132.826546z m0 0" fill="#FFFFFF" p-id="32084" data-spm-anchor-id="a313x.search_index.0.i36.29f93a81zxUdd2" class=""></path></svg>