<?xml version="1.0" standalone="no"?><!DOCTYPE svg PUBLIC "-//W3C//DTD SVG 1.1//EN" "http://www.w3.org/Graphics/SVG/1.1/DTD/svg11.dtd"><svg t="1713701392530" class="icon" viewBox="0 0 1024 1024" version="1.1" xmlns="http://www.w3.org/2000/svg" p-id="13576" xmlns:xlink="http://www.w3.org/1999/xlink" width="200" height="200"><path d="M843.82 62C862.14 62 877 76.39 877 94.15v835.71c0 17.76-14.86 32.15-33.18 32.15H180.18c-18.33 0-33.18-14.39-33.18-32.15V94.15C147 76.39 161.86 62 180.18 62h663.64zM616.59 497.13H486.87L386.88 665.3h84.81l-30.75 141.26 196.17-210.64H534.79l81.85-98.79h-0.05z m90.57-306.56H316.4c-8.29 0.02-15 6.54-15 14.57v174.43c0 8.05 6.72 14.57 15.04 14.57H707.1c8.31 0 15.04-6.53 15.04-14.57V205.14c0-8.04-6.73-14.57-15.04-14.57h0.06z m0 0" fill="#333333" p-id="13577"></path></svg>