<?xml version="1.0" standalone="no"?><!DOCTYPE svg PUBLIC "-//W3C//DTD SVG 1.1//EN" "http://www.w3.org/Graphics/SVG/1.1/DTD/svg11.dtd"><svg t="1713701177071" class="icon" viewBox="0 0 1110 1024" version="1.1" xmlns="http://www.w3.org/2000/svg" p-id="2520" xmlns:xlink="http://www.w3.org/1999/xlink" width="216.796875" height="200"><path d="M1066.632593 341.333333h-42.68711V746.888144a149.323111 149.323111 0 1 1-298.646223 0V298.646223a42.687111 42.687111 0 0 0-42.687111-42.687111v682.666667h85.319704v85.319704H0v-85.319704h85.319704V85.319704A85.319704 85.319704 0 0 1 170.639408 0h426.653037a85.319704 85.319704 0 0 1 85.319704 85.319704V170.639408a128.006815 128.006815 0 0 1 128.006815 128.006815V746.888144a64.003407 64.003407 0 0 0 128.006815 0V341.333333h-42.687111a42.687111 42.687111 0 0 1-42.687111-42.68711V213.326519a42.687111 42.687111 0 0 1 42.687111-42.687111v-21.316297a21.316297 21.316297 0 0 1 42.687111 0v21.316297h85.319704v-21.316297a21.316297 21.316297 0 1 1 42.68711 0v21.316297a42.687111 42.687111 0 0 1 42.687111 42.687111v85.319704a42.687111 42.687111 0 0 1-42.687111 42.68711z m-725.08119 469.340148l170.639408-170.639408H383.965927V511.972741L256.231699 682.666667h127.734228z m256.231699-682.666666H170.639408v256.231699h426.653037v-256.231699z m426.653037 85.319704h-85.81036a42.687111 42.687111 0 1 0 0 85.319704h85.319704a42.687111 42.687111 0 1 0 0-85.319704z" fill="#000E1A" p-id="2521"></path></svg>