<?xml version="1.0" standalone="no"?><!DOCTYPE svg PUBLIC "-//W3C//DTD SVG 1.1//EN" "http://www.w3.org/Graphics/SVG/1.1/DTD/svg11.dtd"><svg t="1713701093295" class="icon" viewBox="0 0 1024 1024" version="1.1" xmlns="http://www.w3.org/2000/svg" p-id="1494" xmlns:xlink="http://www.w3.org/1999/xlink" width="200" height="200"><path d="M122.5 94.7c19.3-15.9 44-25.1 69-25.4h346.3c7-0.1 14 0.3 20.9 1.4 29.2 4.6 56 21.5 73.2 45.5 14.5 19.9 22.3 44.5 22.4 69.1 0.1 46.7 0 93.4 0 140.1h125.2c14.2-0.3 28.4 2.2 41.7 7.4 22.9 8.8 42.6 25.5 55.5 46.3 8.4 13.6 14 28.9 16.4 44.7 1.8 11.4 1.4 22.9 1.4 34.4 0 150 0.1 300 0 450 4.5 0.3 9.1 0 13.6 0.2 9.8 0.7 18.5 8.5 20.5 18.1 2.1 8.9-1.6 18.9-9.2 24.1-4.2 3.1-9.6 4.5-14.8 4.4h-201V841h42.1c23.4 0.5 46.8-10.3 61.6-28.5 17.4-20.8 23.3-50.6 14.7-76.4-2.7-8.2-6.7-15.9-11.8-22.9-35.6-48.7-71.3-97.4-106.9-146.1-7-9.6-16.3-17.6-26.8-23.2-17-9-37.3-11.4-56-6.8-13.6 3.5-26.3 10.4-36.2 20.4-7 6.7-12.1 15.1-17.9 22.7-32.5 44.4-64.9 88.8-97.4 133.1-9.1 12.4-14.6 27.5-15.4 42.9-1.8 28.2 12.4 56.7 36.2 72.1 12.9 8.4 28.3 12.9 43.6 12.7h42.3v114H68.9c-8.7 0.2-17.4-4.7-21.3-12.6-4.4-8.2-3.2-18.9 2.9-25.9 3.4-4 8.2-6.8 13.3-7.8 5.4-1 10.7-2 16.1-3v-709c-0.1-11.4 0.1-22.9 2.3-34 5.1-26.6 19.5-51 40.3-68m94.4 195.5c-11.3 2.4-19.4 14-17.9 25.4 0.8 8.9 7.3 16.8 15.8 19.5 4.1 1.4 8.5 1.2 12.8 1.2h174.5c4 0 8.2 0.2 12.1-0.8 6.6-1.6 12.3-6.3 15.2-12.5 3.6-7.4 2.9-16.7-1.9-23.4-4.1-6-11.2-9.9-18.5-9.9H226c-3 0-6.1-0.3-9.1 0.5m2.4 131.9c-5.6 0.6-10.9 3.5-14.6 7.8-7 7.7-7.6 20.2-1.7 28.7 4.3 6.3 11.9 10.2 19.5 10.1h185.8c6.2 0 12.3-2.5 16.7-6.9 6.8-6.6 8.7-17.5 4.8-26.1-3.6-8.3-12.4-14.1-21.5-13.7-63 0.1-126-0.2-189 0.1m0.2 132.3c-7.5 0.8-14.4 5.5-17.9 12.2-4.1 7.7-3.5 17.7 1.7 24.7 4.3 6.1 11.7 9.7 19.2 9.7h181.3c5 0.1 10.1 0 14.7-2.3 9.5-4.3 15.1-15.7 12.7-25.9-1.9-10.3-11.7-18.5-22.1-18.5-63.2 0.1-126.4-0.1-189.6 0.1m-3.4 133c-4.1 1.1-7.8 3.4-10.8 6.4-7.6 7.7-8.5 21-2.1 29.7 4.3 6.2 11.8 9.9 19.3 9.8h185.7c8.5 0.1 17-4.9 20.8-12.5 3.9-7.3 3.5-16.6-1-23.5-3.4-5.3-9.1-9.2-15.4-10.3-2.9-0.6-5.8-0.3-8.8-0.3H221.6c-1.8-0.1-3.7 0.2-5.5 0.7z" p-id="1495"></path><path d="M613.8 594.5c4.6-6.3 11.4-10.9 19.1-12.5 10.3-2.3 21.6 0.8 29.1 8.2 3.4 3.3 5.9 7.4 8.7 11.1 34 46.5 68.1 93 102.1 139.6 5.5 7.4 7.7 17.2 5.8 26.2-2.1 10.4-9.1 19.9-18.9 24.3-4.7 2.1-9.8 2.9-14.9 2.7H680c-9 0.1-17.7 5.7-21.1 14.1-2.3 5-2 10.5-1.9 15.9v130.6h-34.8V821.5c0.1-4.1 0.1-8.4-1.5-12.3-3.2-9-12.3-15.2-21.8-15.2h-66.5c-7.8 0-15.6-3-21.2-8.4-8.8-8-13-20.9-10.3-32.5 1-4.6 3.1-8.9 5.9-12.6 35.8-48.6 71.4-97.3 107-146z" p-id="1496"></path></svg>